<mxfile host="app.diagrams.net" agent="Mozilla/5.0 (Windows NT 10.0; Win64; x64) AppleWebKit/537.36 (KHTML, like Gecko) Chrome/131.0.0.0 Safari/537.36" version="26.0.6">
  <diagram name="Page-1" id="65cx6cvCK1tQKtDtjsXA">
    <mxGraphModel dx="880" dy="472" grid="1" gridSize="10" guides="1" tooltips="1" connect="1" arrows="1" fold="1" page="1" pageScale="1" pageWidth="827" pageHeight="1169" math="0" shadow="0">
      <root>
        <mxCell id="0" />
        <mxCell id="1" parent="0" />
        <mxCell id="ENjtyf5NIwfFqfkB0VNB-1" value="" style="endArrow=none;dashed=1;html=1;rounded=0;" edge="1" parent="1">
          <mxGeometry width="50" height="50" relative="1" as="geometry">
            <mxPoint x="200" y="680" as="sourcePoint" />
            <mxPoint x="200" y="40" as="targetPoint" />
            <Array as="points">
              <mxPoint x="200" y="180" />
            </Array>
          </mxGeometry>
        </mxCell>
        <mxCell id="ENjtyf5NIwfFqfkB0VNB-3" value="" style="rounded=1;whiteSpace=wrap;html=1;" vertex="1" parent="1">
          <mxGeometry x="60" y="120" width="120" height="50" as="geometry" />
        </mxCell>
        <mxCell id="ENjtyf5NIwfFqfkB0VNB-29" style="edgeStyle=orthogonalEdgeStyle;rounded=0;orthogonalLoop=1;jettySize=auto;html=1;exitX=0.5;exitY=1;exitDx=0;exitDy=0;entryX=0.5;entryY=0;entryDx=0;entryDy=0;" edge="1" parent="1" source="ENjtyf5NIwfFqfkB0VNB-4" target="ENjtyf5NIwfFqfkB0VNB-5">
          <mxGeometry relative="1" as="geometry" />
        </mxCell>
        <mxCell id="ENjtyf5NIwfFqfkB0VNB-4" value="" style="rounded=1;whiteSpace=wrap;html=1;" vertex="1" parent="1">
          <mxGeometry x="220" y="200" width="120" height="40" as="geometry" />
        </mxCell>
        <mxCell id="ENjtyf5NIwfFqfkB0VNB-31" style="edgeStyle=orthogonalEdgeStyle;rounded=0;orthogonalLoop=1;jettySize=auto;html=1;exitX=0.5;exitY=1;exitDx=0;exitDy=0;entryX=0.5;entryY=0;entryDx=0;entryDy=0;" edge="1" parent="1" source="ENjtyf5NIwfFqfkB0VNB-5" target="ENjtyf5NIwfFqfkB0VNB-16">
          <mxGeometry relative="1" as="geometry">
            <Array as="points">
              <mxPoint x="280" y="310" />
              <mxPoint x="120" y="310" />
            </Array>
          </mxGeometry>
        </mxCell>
        <mxCell id="ENjtyf5NIwfFqfkB0VNB-5" value="" style="rounded=1;whiteSpace=wrap;html=1;" vertex="1" parent="1">
          <mxGeometry x="220" y="260" width="120" height="40" as="geometry" />
        </mxCell>
        <mxCell id="ENjtyf5NIwfFqfkB0VNB-6" value="" style="rounded=1;whiteSpace=wrap;html=1;" vertex="1" parent="1">
          <mxGeometry x="60" y="330" width="120" height="30" as="geometry" />
        </mxCell>
        <mxCell id="ENjtyf5NIwfFqfkB0VNB-7" value="" style="endArrow=none;dashed=1;html=1;rounded=0;" edge="1" parent="1">
          <mxGeometry width="50" height="50" relative="1" as="geometry">
            <mxPoint x="360" y="680" as="sourcePoint" />
            <mxPoint x="360" y="40" as="targetPoint" />
            <Array as="points">
              <mxPoint x="360" y="420" />
              <mxPoint x="360" y="190" />
            </Array>
          </mxGeometry>
        </mxCell>
        <mxCell id="ENjtyf5NIwfFqfkB0VNB-8" value="" style="endArrow=none;dashed=1;html=1;rounded=0;" edge="1" parent="1">
          <mxGeometry width="50" height="50" relative="1" as="geometry">
            <mxPoint x="520" y="680" as="sourcePoint" />
            <mxPoint x="520" y="40" as="targetPoint" />
            <Array as="points">
              <mxPoint x="520" y="424.5" />
              <mxPoint x="520" y="194.5" />
            </Array>
          </mxGeometry>
        </mxCell>
        <mxCell id="ENjtyf5NIwfFqfkB0VNB-34" style="edgeStyle=orthogonalEdgeStyle;rounded=0;orthogonalLoop=1;jettySize=auto;html=1;exitX=0.5;exitY=1;exitDx=0;exitDy=0;entryX=0.5;entryY=0;entryDx=0;entryDy=0;" edge="1" parent="1" source="ENjtyf5NIwfFqfkB0VNB-9" target="ENjtyf5NIwfFqfkB0VNB-18">
          <mxGeometry relative="1" as="geometry" />
        </mxCell>
        <mxCell id="ENjtyf5NIwfFqfkB0VNB-9" value="" style="rounded=1;whiteSpace=wrap;html=1;" vertex="1" parent="1">
          <mxGeometry x="380" y="390" width="120" height="40" as="geometry" />
        </mxCell>
        <mxCell id="ENjtyf5NIwfFqfkB0VNB-35" style="edgeStyle=orthogonalEdgeStyle;rounded=0;orthogonalLoop=1;jettySize=auto;html=1;exitX=1;exitY=0.5;exitDx=0;exitDy=0;entryX=0.5;entryY=0;entryDx=0;entryDy=0;" edge="1" parent="1" source="ENjtyf5NIwfFqfkB0VNB-10" target="ENjtyf5NIwfFqfkB0VNB-11">
          <mxGeometry relative="1" as="geometry" />
        </mxCell>
        <mxCell id="ENjtyf5NIwfFqfkB0VNB-10" value="" style="rounded=1;whiteSpace=wrap;html=1;" vertex="1" parent="1">
          <mxGeometry x="380" y="450" width="120" height="30" as="geometry" />
        </mxCell>
        <mxCell id="ENjtyf5NIwfFqfkB0VNB-36" style="edgeStyle=orthogonalEdgeStyle;rounded=0;orthogonalLoop=1;jettySize=auto;html=1;exitX=0.5;exitY=1;exitDx=0;exitDy=0;entryX=0.5;entryY=0;entryDx=0;entryDy=0;" edge="1" parent="1" source="ENjtyf5NIwfFqfkB0VNB-11" target="ENjtyf5NIwfFqfkB0VNB-12">
          <mxGeometry relative="1" as="geometry" />
        </mxCell>
        <mxCell id="ENjtyf5NIwfFqfkB0VNB-11" value="" style="rounded=1;whiteSpace=wrap;html=1;" vertex="1" parent="1">
          <mxGeometry x="550" y="500" width="120" height="40" as="geometry" />
        </mxCell>
        <mxCell id="ENjtyf5NIwfFqfkB0VNB-38" style="edgeStyle=orthogonalEdgeStyle;rounded=0;orthogonalLoop=1;jettySize=auto;html=1;exitX=0.5;exitY=1;exitDx=0;exitDy=0;" edge="1" parent="1" source="ENjtyf5NIwfFqfkB0VNB-12">
          <mxGeometry relative="1" as="geometry">
            <mxPoint x="120" y="640" as="targetPoint" />
          </mxGeometry>
        </mxCell>
        <mxCell id="ENjtyf5NIwfFqfkB0VNB-12" value="" style="rounded=1;whiteSpace=wrap;html=1;" vertex="1" parent="1">
          <mxGeometry x="60" y="580" width="120" height="40" as="geometry" />
        </mxCell>
        <mxCell id="ENjtyf5NIwfFqfkB0VNB-13" value="Request therapist suggestions" style="text;html=1;align=center;verticalAlign=middle;whiteSpace=wrap;rounded=0;" vertex="1" parent="1">
          <mxGeometry x="70" y="130" width="100" height="30" as="geometry" />
        </mxCell>
        <mxCell id="ENjtyf5NIwfFqfkB0VNB-14" value="Analyse user data" style="text;html=1;align=center;verticalAlign=middle;whiteSpace=wrap;rounded=0;" vertex="1" parent="1">
          <mxGeometry x="230" y="205" width="100" height="30" as="geometry" />
        </mxCell>
        <mxCell id="ENjtyf5NIwfFqfkB0VNB-15" value="Provide therapist recommendations" style="text;html=1;align=center;verticalAlign=middle;whiteSpace=wrap;rounded=0;" vertex="1" parent="1">
          <mxGeometry x="240" y="265" width="80" height="30" as="geometry" />
        </mxCell>
        <mxCell id="ENjtyf5NIwfFqfkB0VNB-32" style="edgeStyle=orthogonalEdgeStyle;rounded=0;orthogonalLoop=1;jettySize=auto;html=1;exitX=0.5;exitY=1;exitDx=0;exitDy=0;entryX=0.5;entryY=0;entryDx=0;entryDy=0;" edge="1" parent="1" source="ENjtyf5NIwfFqfkB0VNB-16" target="ENjtyf5NIwfFqfkB0VNB-9">
          <mxGeometry relative="1" as="geometry">
            <Array as="points">
              <mxPoint x="120" y="370" />
              <mxPoint x="440" y="370" />
            </Array>
          </mxGeometry>
        </mxCell>
        <mxCell id="ENjtyf5NIwfFqfkB0VNB-16" value="Compare profiles" style="text;html=1;align=center;verticalAlign=middle;whiteSpace=wrap;rounded=0;" vertex="1" parent="1">
          <mxGeometry x="70" y="330" width="100" height="30" as="geometry" />
        </mxCell>
        <mxCell id="ENjtyf5NIwfFqfkB0VNB-17" value="Review recommendations" style="text;html=1;align=center;verticalAlign=middle;whiteSpace=wrap;rounded=0;" vertex="1" parent="1">
          <mxGeometry x="414" y="395" width="60" height="30" as="geometry" />
        </mxCell>
        <mxCell id="ENjtyf5NIwfFqfkB0VNB-18" value="Assist in selection" style="text;html=1;align=center;verticalAlign=middle;whiteSpace=wrap;rounded=0;" vertex="1" parent="1">
          <mxGeometry x="390" y="450" width="100" height="30" as="geometry" />
        </mxCell>
        <mxCell id="ENjtyf5NIwfFqfkB0VNB-19" value="Review selection notification" style="text;html=1;align=center;verticalAlign=middle;whiteSpace=wrap;rounded=0;" vertex="1" parent="1">
          <mxGeometry x="560" y="505" width="110" height="30" as="geometry" />
        </mxCell>
        <mxCell id="ENjtyf5NIwfFqfkB0VNB-20" value="Finalise therapist selection&amp;nbsp;" style="text;html=1;align=center;verticalAlign=middle;whiteSpace=wrap;rounded=0;" vertex="1" parent="1">
          <mxGeometry x="60" y="585" width="120" height="30" as="geometry" />
        </mxCell>
        <mxCell id="ENjtyf5NIwfFqfkB0VNB-25" value="" style="endArrow=classic;html=1;rounded=0;exitX=0.5;exitY=1;exitDx=0;exitDy=0;exitPerimeter=0;entryX=0.5;entryY=0;entryDx=0;entryDy=0;" edge="1" parent="1" source="ENjtyf5NIwfFqfkB0VNB-3" target="ENjtyf5NIwfFqfkB0VNB-4">
          <mxGeometry width="50" height="50" relative="1" as="geometry">
            <mxPoint x="390" y="270" as="sourcePoint" />
            <mxPoint x="440" y="220" as="targetPoint" />
            <Array as="points">
              <mxPoint x="120" y="180" />
              <mxPoint x="280" y="180" />
            </Array>
          </mxGeometry>
        </mxCell>
        <mxCell id="ENjtyf5NIwfFqfkB0VNB-45" style="edgeStyle=orthogonalEdgeStyle;rounded=0;orthogonalLoop=1;jettySize=auto;html=1;exitX=0.5;exitY=1;exitDx=0;exitDy=0;entryX=0.5;entryY=0;entryDx=0;entryDy=0;" edge="1" parent="1" source="ENjtyf5NIwfFqfkB0VNB-42" target="ENjtyf5NIwfFqfkB0VNB-3">
          <mxGeometry relative="1" as="geometry" />
        </mxCell>
        <mxCell id="ENjtyf5NIwfFqfkB0VNB-42" value="" style="ellipse;html=1;shape=startState;fillColor=#000000;strokeColor=#ff0000;" vertex="1" parent="1">
          <mxGeometry x="105" y="80" width="30" height="30" as="geometry" />
        </mxCell>
        <mxCell id="ENjtyf5NIwfFqfkB0VNB-46" value="" style="ellipse;html=1;shape=endState;fillColor=#000000;strokeColor=#ff0000;" vertex="1" parent="1">
          <mxGeometry x="105" y="640" width="30" height="30" as="geometry" />
        </mxCell>
        <mxCell id="ENjtyf5NIwfFqfkB0VNB-47" value="&lt;font style=&quot;font-size: 15px;&quot;&gt;&lt;b&gt;User&lt;/b&gt;&lt;/font&gt;" style="text;html=1;align=center;verticalAlign=middle;whiteSpace=wrap;rounded=0;" vertex="1" parent="1">
          <mxGeometry x="90" y="40" width="60" height="30" as="geometry" />
        </mxCell>
        <mxCell id="ENjtyf5NIwfFqfkB0VNB-48" value="&lt;font style=&quot;font-size: 15px;&quot;&gt;&lt;b&gt;Admin&lt;/b&gt;&lt;/font&gt;" style="text;html=1;align=center;verticalAlign=middle;whiteSpace=wrap;rounded=0;" vertex="1" parent="1">
          <mxGeometry x="240" y="40" width="60" height="30" as="geometry" />
        </mxCell>
        <mxCell id="ENjtyf5NIwfFqfkB0VNB-49" value="&lt;font style=&quot;font-size: 15px;&quot;&gt;&lt;b&gt;User Caretaker&lt;/b&gt;&lt;/font&gt;" style="text;html=1;align=center;verticalAlign=middle;whiteSpace=wrap;rounded=0;" vertex="1" parent="1">
          <mxGeometry x="386.5" y="40" width="115" height="30" as="geometry" />
        </mxCell>
        <mxCell id="ENjtyf5NIwfFqfkB0VNB-50" value="&lt;font style=&quot;font-size: 15px;&quot;&gt;&lt;b&gt;Therapist&lt;/b&gt;&lt;/font&gt;" style="text;html=1;align=center;verticalAlign=middle;whiteSpace=wrap;rounded=0;" vertex="1" parent="1">
          <mxGeometry x="560" y="40" width="60" height="30" as="geometry" />
        </mxCell>
      </root>
    </mxGraphModel>
  </diagram>
</mxfile>
